<?xml version="1.0" encoding="utf-8"?>
<!-- Generator: Adobe Illustrator 18.0.0, SVG Export Plug-In . SVG Version: 6.00 Build 0)  -->
<!DOCTYPE svg PUBLIC "-//W3C//DTD SVG 1.1//EN" "http://www.w3.org/Graphics/SVG/1.1/DTD/svg11.dtd">
<svg version="1.1" id="Layer_1" xmlns="http://www.w3.org/2000/svg" xmlns:xlink="http://www.w3.org/1999/xlink" x="0px" y="0px"
	 viewBox="0 0 1024 1024" enable-background="new 0 0 1024 1024" xml:space="preserve">
<g>
	<rect fill="#FADD33" width="1024.3" height="1024"/>
</g>
<g>
	<path fill="#343432" d="M703.2,507.6l27.9-16.9c5.4,9.5,10.3,17.6,22,17.6c11.2,0,18.3-4.4,18.3-21.5V370.4h34.2v116.9
		c0,35.5-20.8,51.6-51.1,51.6C727.2,538.9,711.3,524.7,703.2,507.6"/>
	<path fill="#343432" d="M824.2,503.9l27.9-16.1c7.3,12,16.9,20.8,33.7,20.8c14.2,0,23.2-7.1,23.2-16.9c0-11.7-9.3-15.9-24.9-22.7
		l-8.6-3.7c-24.7-10.5-41.1-23.7-41.1-51.6c0-25.7,19.6-45.2,50.1-45.2c21.8,0,37.4,7.6,48.7,27.4l-26.7,17.1
		c-5.9-10.5-12.2-14.7-22-14.7c-10,0-16.4,6.4-16.4,14.7c0,10.3,6.4,14.4,21,20.8l8.6,3.7c29.1,12.5,45.5,25.2,45.5,53.8
		c0,30.8-24.2,47.7-56.7,47.7C854.8,538.9,834.3,523.7,824.2,503.9"/>
</g>
<g>
	<g>
		<rect x="463" y="464.2" fill="#343432" width="211.2" height="47.1"/>
	</g>
	<path fill="#343432" d="M917.1,604.3v41.2h-430v-41.2H917.1 M940.7,580.7H463.5v88.4h477.2V580.7L940.7,580.7z"/>
	<path fill="#343432" d="M917.1,741.4v41.2h-430v-41.2H917.1 M940.7,717.8H463.5v88.4h477.2V717.8L940.7,717.8z"/>
	<path fill="#343432" d="M917.1,878.5v41.2h-430v-41.2H917.1 M940.7,855H463.5v88.4h477.2V855L940.7,855z"/>
</g>
</svg>
